<svg width="40" height="40" viewBox="0 0 40 40" fill="none" xmlns="http://www.w3.org/2000/svg">
<path fill-rule="evenodd" clip-rule="evenodd" d="M20 36.6667C29.2048 36.6667 36.6667 29.2048 36.6667 20C36.6667 10.7953 29.2048 3.33337 20 3.33337C10.7953 3.33337 3.33337 10.7953 3.33337 20C3.33337 23.995 4.73895 27.6617 7.08254 30.5325L3.82079 33.8215C2.77956 34.8715 3.51701 36.6667 4.98954 36.6667H20ZM12.5 16.6667C12.5 15.7462 13.2462 15 14.1667 15H25.8334C26.7539 15 27.5 15.7462 27.5 16.6667C27.5 17.5872 26.7539 18.3334 25.8334 18.3334H14.1667C13.2462 18.3334 12.5 17.5872 12.5 16.6667ZM14.1667 21.6667C13.2462 21.6667 12.5 22.4129 12.5 23.3334C12.5 24.2539 13.2462 25 14.1667 25H19.1667C20.0872 25 20.8334 24.2539 20.8334 23.3334C20.8334 22.4129 20.0872 21.6667 19.1667 21.6667H14.1667Z" fill="#2787F5"/>
</svg>
