<svg width="17" height="17" viewBox="0 0 17 17" fill="none" xmlns="http://www.w3.org/2000/svg">
<path d="M8.60304 3.61236H7.66496C7.57915 3.61236 7.50894 3.68044 7.50894 3.76366V8.97037C7.50894 9.01954 7.53234 9.06493 7.5733 9.0933L10.7971 11.3761C10.8673 11.4253 10.9648 11.412 11.0155 11.3439L11.5733 10.6063C11.6259 10.5364 11.6103 10.4418 11.5401 10.3945L8.75906 8.44459V3.76366C8.75906 3.68044 8.68885 3.61236 8.60304 3.61236ZM12.8897 5.03461L15.9477 5.75897C16.0452 5.78166 16.1408 5.70979 16.1408 5.61334L16.1564 2.55891C16.1564 2.4322 16.0062 2.36033 15.9048 2.43976L12.8312 4.76793C12.808 4.78536 12.7903 4.80879 12.7802 4.83553C12.7701 4.86227 12.768 4.89124 12.7741 4.9191C12.7802 4.94695 12.7943 4.97257 12.8147 4.99301C12.8352 5.01344 12.8612 5.02786 12.8897 5.03461ZM16.1603 10.7293L15.0545 10.3605C15.016 10.3476 14.9738 10.35 14.9369 10.3669C14.9001 10.3839 14.8716 10.4142 14.8575 10.4512C14.8205 10.5477 14.7815 10.6423 14.7405 10.7368C14.3934 11.5331 13.8961 12.2499 13.2603 12.8645C12.6315 13.4761 11.8864 13.9636 11.0662 14.3C10.2165 14.6484 9.30321 14.8272 8.38071 14.8258C7.44848 14.8258 6.54551 14.6499 5.6952 14.3C4.87499 13.9636 4.12988 13.4761 3.50115 12.8645C2.86732 12.2499 2.37 11.5331 2.0209 10.7368C1.66365 9.91239 1.48061 9.02681 1.48263 8.13253C1.48263 7.2285 1.66401 6.35094 2.02481 5.52634C2.37195 4.73011 2.86927 4.01331 3.50505 3.39864C4.13378 2.78704 4.8789 2.29953 5.6991 1.96316C6.54551 1.61327 7.45043 1.43738 8.38266 1.43738C9.31488 1.43738 10.2179 1.61327 11.0682 1.96316C11.8884 2.29953 12.6335 2.78704 13.2622 3.39864C13.4611 3.59345 13.6484 3.79581 13.82 4.00953L14.9862 3.12441C13.4514 1.22177 11.0623 -0.0018891 8.37876 2.18924e-06C3.70593 0.00189348 -0.0463731 3.68234 0.000433177 8.21575C0.0472395 12.6697 3.78199 16.2651 8.38266 16.2651C12.0004 16.2651 15.0818 14.0409 16.2559 10.926C16.2851 10.8465 16.2422 10.7576 16.1603 10.7293Z" fill="#241D1D"/>
</svg>
